<svg width="512" height="512" viewBox="0 0 512 512" fill="none" xmlns="http://www.w3.org/2000/svg">
  <defs>
    <radialGradient id="navyGlow" cx="50%" cy="39%" r="68%">
      <stop offset="0" stop-color="#082D56"/>
      <stop offset="0.68" stop-color="#03152D"/>
      <stop offset="1" stop-color="#010814"/>
    </radialGradient>
    <linearGradient id="gold" x1="130" y1="104" x2="382" y2="404" gradientUnits="userSpaceOnUse">
      <stop offset="0" stop-color="#FFE5A5"/>
      <stop offset="0.48" stop-color="#D6A85F"/>
      <stop offset="1" stop-color="#875C25"/>
    </linearGradient>
    <filter id="softGlow" x="-40%" y="-40%" width="180%" height="180%" color-interpolation-filters="sRGB">
      <feGaussianBlur stdDeviation="14" result="blur"/>
      <feColorMatrix in="blur" type="matrix" values="0 0 0 0 0.839 0 0 0 0 0.659 0 0 0 0 0.373 0 0 0 .5 0"/>
      <feBlend in="SourceGraphic"/>
    </filter>
  </defs>
  <circle cx="256" cy="256" r="229" fill="url(#navyGlow)" stroke="url(#gold)" stroke-width="16"/>
  <circle cx="256" cy="256" r="202" stroke="#D6A85F" stroke-opacity=".24" stroke-width="2"/>
  <g filter="url(#softGlow)">
    <path d="M128 252C187 235 198 179 261 152C306 132 351 143 372 185C345 174 320 187 299 215C269 257 221 279 128 252Z" fill="url(#gold)"/>
    <path d="M112 292C171 270 218 270 261 283C299 294 336 292 399 260C354 303 309 316 255 303C204 291 162 292 112 316V292Z" fill="url(#gold)"/>
    <path d="M123 342C175 320 221 319 270 330C315 340 352 334 396 308C356 353 309 368 254 354C207 342 166 344 123 366V342Z" fill="url(#gold)" opacity=".92"/>
  </g>
  <path d="M155 389C214 366 262 366 311 381C337 389 360 389 386 378" stroke="#D6A85F" stroke-width="10" stroke-linecap="round" opacity=".65"/>
</svg>
