<svg width="920" height="280" viewBox="0 0 920 280" fill="none" xmlns="http://www.w3.org/2000/svg">
  <defs>
    <radialGradient id="sealBg" cx="50%" cy="38%" r="70%">
      <stop stop-color="#082D56"/>
      <stop offset=".72" stop-color="#03152D"/>
      <stop offset="1" stop-color="#010814"/>
    </radialGradient>
    <linearGradient id="gold" x1="56" y1="32" x2="236" y2="246" gradientUnits="userSpaceOnUse">
      <stop stop-color="#FFE5A5"/>
      <stop offset=".52" stop-color="#D6A85F"/>
      <stop offset="1" stop-color="#875C25"/>
    </linearGradient>
    <filter id="glow" x="-30%" y="-30%" width="160%" height="160%" color-interpolation-filters="sRGB">
      <feGaussianBlur stdDeviation="10" result="blur"/>
      <feColorMatrix in="blur" type="matrix" values="0 0 0 0 0.839 0 0 0 0 0.659 0 0 0 0 0.373 0 0 0 .45 0"/>
      <feBlend in="SourceGraphic"/>
    </filter>
  </defs>
  <rect width="920" height="280" rx="32" fill="#03152D" fill-opacity=".01"/>
  <circle cx="140" cy="140" r="112" fill="url(#sealBg)" stroke="url(#gold)" stroke-width="8"/>
  <circle cx="140" cy="140" r="98" stroke="#D6A85F" stroke-opacity=".24" stroke-width="1.5"/>
  <g filter="url(#glow)">
    <path d="M78 133C108 124 114 96 147 82C170 72 194 78 205 100C190 94 177 101 166 115C151 137 126 148 78 133Z" fill="url(#gold)"/>
    <path d="M70 157C101 145 126 146 148 153C168 159 187 157 220 140C196 163 173 170 145 163C118 157 96 158 70 171V157Z" fill="url(#gold)"/>
    <path d="M76 185C104 173 128 173 154 179C177 184 197 181 220 167C199 191 174 199 145 191C120 185 99 187 76 198V185Z" fill="url(#gold)" opacity=".92"/>
  </g>
  <path d="M84 219C112 207 134 207 158 214C175 219 191 218 211 209" stroke="#D6A85F" stroke-width="4" stroke-linecap="round" opacity=".8"/>
  <text x="292" y="129" fill="#F8FAFC" font-family="Inter, IBM Plex Sans, Arial, sans-serif" font-size="76" font-weight="800" letter-spacing="12">CTRL SEA</text>
  <path d="M292 166H438" stroke="#D6A85F" stroke-width="3" stroke-linecap="round"/>
  <path d="M743 166H889" stroke="#D6A85F" stroke-width="3" stroke-linecap="round"/>
  <text x="462" y="175" fill="#D6A85F" font-family="Inter, IBM Plex Sans, Arial, sans-serif" font-size="21" font-weight="700" letter-spacing="7">MARITIME DATA ANALYTICS</text>
  <text x="294" y="218" fill="#9ADCF2" font-family="Inter, IBM Plex Sans, Arial, sans-serif" font-size="18" font-weight="500">Maritime Intelligence Platform</text>
</svg>
